<svg xmlns="http://www.w3.org/2000/svg" width="85" height="58.943" viewBox="0 0 85 58.943">
  <g id="Grupo_148349" data-name="Grupo 148349" transform="translate(-180 -1671)">
    <path id="Trazado_190103" data-name="Trazado 190103" d="M0,0,85,40H0Z" transform="translate(180 1689.942)" fill="#a0a9b6"/>
    <g id="sustancias-quimicas" transform="translate(189.142 1650.048)">
      <g id="Grupo_78303" data-name="Grupo 78303" transform="translate(0 47.307)">
        <path id="Trazado_100580" data-name="Trazado 100580" d="M14.91,237.14v-3.457a1.109,1.109,0,0,0-1.109-1.109H9.895a1.109,1.109,0,0,0-1.109,1.109v3.457a6.827,6.827,0,0,1-3.234,5.769,11.849,11.849,0,1,0,12.6,0,6.837,6.837,0,0,1-3.239-5.773Z" transform="translate(0 -232.574)" fill="#b3d8fb"/>
      </g>
      <path id="Trazado_100581" data-name="Trazado 100581" d="M86.009,242.913a6.836,6.836,0,0,1-3.24-5.773v-3.457a1.109,1.109,0,0,0-1.109-1.109H77.755a1.1,1.1,0,0,0-.242.027,1.109,1.109,0,0,1,.867,1.082v3.457a6.836,6.836,0,0,0,3.24,5.773,11.849,11.849,0,0,1-4.1,21.677,11.848,11.848,0,0,0,8.491-21.677Z" transform="translate(-67.86 -185.267)" fill="#89c6fc"/>
      <g id="Grupo_78304" data-name="Grupo 78304" transform="translate(0.32 70.401)">
        <path id="Trazado_100582" data-name="Trazado 100582" d="M2.575,418.009a11.848,11.848,0,0,0,23.062,0Z" transform="translate(-2.575 -418.009)" fill="#ddc192"/>
      </g>
      <path id="Trazado_100583" data-name="Trazado 100583" d="M86.909,418.01a11.863,11.863,0,0,1-9.331,8.922A11.841,11.841,0,0,0,91.3,418.01Z" transform="translate(-67.917 -347.609)" fill="#c99540"/>
      <g id="Grupo_78305" data-name="Grupo 78305" transform="translate(14.113 20.952)">
        <path id="Trazado_100584" data-name="Trazado 100584" d="M148.652,68.231l-10-25.646a10.962,10.962,0,0,1-.749-3.982V22.061a1.109,1.109,0,0,0-1.109-1.109H125.752a1.109,1.109,0,0,0-1.109,1.109V38.6a10.964,10.964,0,0,1-.749,3.982l-10,25.646a8.287,8.287,0,0,0,7.721,11.3h19.312A8.287,8.287,0,0,0,148.652,68.231Z" transform="translate(-113.323 -20.952)" fill="#b3d8fb"/>
      </g>
      <g id="Grupo_78306" data-name="Grupo 78306" transform="translate(31.436 20.952)">
        <path id="Trazado_100585" data-name="Trazado 100585" d="M270.428,68.231l-10-25.646a10.961,10.961,0,0,1-.749-3.982V22.061a1.109,1.109,0,0,0-1.109-1.109h-6.15a1.109,1.109,0,0,1,1.109,1.109V38.6a10.964,10.964,0,0,0,.749,3.982l10,25.646a8.287,8.287,0,0,1-7.721,11.3h6.15A8.287,8.287,0,0,0,270.428,68.231Z" transform="translate(-252.423 -20.952)" fill="#89c6fc"/>
      </g>
      <g id="Grupo_78307" data-name="Grupo 78307" transform="translate(54.638 36.178)">
        <path id="Trazado_100586" data-name="Trazado 100586" d="M443.7,181.324h-3.766a1.209,1.209,0,0,1-1.21-1.21V143.961a.747.747,0,0,1,.747-.747h4.69a.747.747,0,0,1,.747.747v36.153A1.21,1.21,0,0,1,443.7,181.324Z" transform="translate(-438.724 -143.214)" fill="#b3d8fb"/>
      </g>
      <g id="Grupo_78308" data-name="Grupo 78308" transform="translate(54.638 36.178)">
        <path id="Trazado_100587" data-name="Trazado 100587" d="M444.136,143.214h-2.128v33.96a1.25,1.25,0,0,1-1.25,1.25h-2.035v1.65a1.25,1.25,0,0,0,1.25,1.25h3.685a1.25,1.25,0,0,0,1.25-1.25V143.986A.772.772,0,0,0,444.136,143.214Z" transform="translate(-438.723 -143.214)" fill="#89c6fc"/>
      </g>
      <g id="Grupo_78309" data-name="Grupo 78309" transform="translate(51.666 67.276)">
        <path id="Trazado_100588" data-name="Trazado 100588" d="M420.927,392.915l-5.877,10.179a1.382,1.382,0,0,0,1.2,2.073h9.36a1.382,1.382,0,0,0,1.2-2.073Z" transform="translate(-414.863 -392.915)" fill="#b3d8fb"/>
      </g>
      <path id="Trazado_100589" data-name="Trazado 100589" d="M458.432,403.093l-5.877-10.179-1.565,2.71,4.312,7.469a1.382,1.382,0,0,1-1.2,2.073h3.129A1.382,1.382,0,0,0,458.432,403.093Z" transform="translate(-394.825 -325.638)" fill="#89c6fc"/>
      <g id="Grupo_78310" data-name="Grupo 78310" transform="translate(54.638 58.586)">
        <path id="Trazado_100590" data-name="Trazado 100590" d="M438.723,323.135v14.453a1.25,1.25,0,0,0,1.25,1.25h3.685a1.25,1.25,0,0,0,1.25-1.25V323.135Z" transform="translate(-438.723 -323.135)" fill="#27a2fb"/>
      </g>
      <g id="Grupo_78311" data-name="Grupo 78311" transform="translate(14.113 63.418)">
        <path id="Trazado_100591" data-name="Trazado 100591" d="M113.9,366.747a8.287,8.287,0,0,0,7.721,11.3h19.312a8.287,8.287,0,0,0,7.721-11.3l-1.876-4.813h-31Z" transform="translate(-113.323 -361.934)" fill="#ae66d8"/>
      </g>
      <g id="Grupo_78312" data-name="Grupo 78312" transform="translate(14.113 63.418)">
        <path id="Trazado_100592" data-name="Trazado 100592" d="M113.9,366.747a8.287,8.287,0,0,0,7.721,11.3h19.312a8.287,8.287,0,0,0,7.721-11.3l-1.876-4.813h-31Z" transform="translate(-113.323 -361.934)" fill="#84e8ed"/>
      </g>
      <g id="Grupo_78313" data-name="Grupo 78313" transform="translate(54.638 58.586)">
        <path id="Trazado_100593" data-name="Trazado 100593" d="M442.008,323.135v11.553a1.25,1.25,0,0,1-1.25,1.25h-2.035v1.65a1.25,1.25,0,0,0,1.25,1.25h3.685a1.25,1.25,0,0,0,1.25-1.25V323.135Z" transform="translate(-438.723 -323.135)" fill="#0a81f9"/>
      </g>
      <g id="Grupo_78314" data-name="Grupo 78314" transform="translate(22.407 63.418)">
        <path id="Trazado_100594" data-name="Trazado 100594" d="M206.959,366.747l-1.876-4.813h-6.15l1.876,4.813a8.287,8.287,0,0,1-7.721,11.3h6.15A8.287,8.287,0,0,0,206.959,366.747Z" transform="translate(-179.925 -361.934)" fill="#4ed3da"/>
      </g>
      <path id="Trazado_100595" data-name="Trazado 100595" d="M214.594,247.681h-4.5v-2.436a.965.965,0,0,0-1.93,0V259.63h1.93v-3.012h2.06a.965.965,0,1,0,0-1.93H210.1v-5.076h4.5a.965.965,0,1,0,0-1.93Z" transform="translate(-182.241 -195.515)" fill="#1690fb"/>
      <path id="Trazado_100596" data-name="Trazado 100596" d="M214.553,364.618H210.1v-2.684h-1.93V370.3a.965.965,0,0,0,1.93,0v-3.752h4.5a.965.965,0,0,0,.965-.995A.992.992,0,0,0,214.553,364.618Z" transform="translate(-182.241 -298.516)" fill="#46a2f2"/>
    </g>
  </g>
</svg>
