<svg xmlns="http://www.w3.org/2000/svg" xmlns:xlink="http://www.w3.org/1999/xlink" width="117" height="118" viewBox="0 0 117 118">
  <defs>
    <clipPath id="clip-path">
      <rect id="Rectángulo_40590" data-name="Rectángulo 40590" width="71.345" height="88.519" fill="none"/>
    </clipPath>
    <clipPath id="clip-path-3">
      <rect id="Rectángulo_40586" data-name="Rectángulo 40586" width="33.98" height="88.411" fill="#dadada"/>
    </clipPath>
  </defs>
  <g id="Grupo_148352" data-name="Grupo 148352" transform="translate(-1057 -925)">
    <g id="Grupo_148351" data-name="Grupo 148351" transform="translate(-98 5)">
      <circle id="Elipse_4054" data-name="Elipse 4054" cx="58" cy="58" r="58" transform="translate(1156 920)" fill="#fff"/>
      <g id="Grupo_147960" data-name="Grupo 147960" transform="translate(425.386)">
        <ellipse id="Elipse_4056" data-name="Elipse 4056" cx="58.5" cy="6.5" rx="58.5" ry="6.5" transform="translate(729.614 1025)" fill="#afafaf" opacity="0.4"/>
        <g id="Grupo_147957" data-name="Grupo 147957" transform="translate(401.614)">
          <g id="Grupo_147946" data-name="Grupo 147946" transform="translate(350.827 947.481)">
            <g id="Grupo_147955" data-name="Grupo 147955" clip-path="url(#clip-path)">
              <g id="Grupo_147950" data-name="Grupo 147950">
                <g id="Grupo_147949" data-name="Grupo 147949" clip-path="url(#clip-path)">
                  <path id="Trazado_193738" data-name="Trazado 193738" d="M0,6.883S7.393,7.9,7.647,18.991,9.3,75.452,9.3,75.452s1.912,14.148,27.275,13,29.7-7.01,30.334-12.363S69.844,6.118,69.844,6.118s1.691-3.767,1.484-4.9C71.218.629,69.844,0,69.844,0H7.138S1.02.892,0,6.883" fill="#e8e8e8"/>
                  <g id="Grupo_147948" data-name="Grupo 147948" transform="translate(37.365)" opacity="0.63">
                    <g id="Grupo_147947" data-name="Grupo 147947">
                      <g id="Grupo_147946-2" data-name="Grupo 147946" clip-path="url(#clip-path-3)">
                        <path id="Trazado_193739" data-name="Trazado 193739" d="M84.95,76.089c.637-5.353,2.931-69.972,2.931-69.972s1.692-3.768,1.484-4.9C89.255.629,87.881,0,87.881,0H56.343V37.571L55.4,88.411c24.655-1.234,28.917-7.026,29.548-12.322" transform="translate(-55.402)" fill="#dadada"/>
                      </g>
                    </g>
                  </g>
                  <path id="Trazado_193740" data-name="Trazado 193740" d="M42.19,49.9H11.931c.5,17.388,1.257,41.8,1.257,41.8s1.911,14.147,27.275,13,29.7-7.01,30.334-12.363c.353-2.968,1.216-24.148,1.914-42.436Z" transform="translate(-3.884 -16.245)" fill="#9eb7e5"/>
                  <path id="Trazado_193741" data-name="Trazado 193741" d="M56.232,49.9c.293,20.893.47,44.51-.009,54.729,24.164-1.292,28.368-7.036,28.994-12.293.353-2.968,1.215-24.148,1.914-42.436h-30.9Z" transform="translate(-18.304 -16.245)" fill="#6a8ccc"/>
                  <path id="Trazado_193742" data-name="Trazado 193742" d="M72.507,48.007c0,2.164-13.6,3.918-30.371,3.918S11.765,50.17,11.765,48.007s13.6-3.918,30.371-3.918,30.371,1.754,30.371,3.918" transform="translate(-3.83 -14.354)" fill="#86a3d8"/>
                  <line id="Línea_161" data-name="Línea 161" x2="8.412" transform="translate(43.047 49.133)" fill="none" stroke="#4b4b4c" stroke-miterlimit="10" stroke-width="1.036"/>
                  <line id="Línea_162" data-name="Línea 162" x2="8.412" transform="translate(43.047 64.428)" fill="none" stroke="#4b4b4c" stroke-miterlimit="10" stroke-width="1.036"/>
                </g>
              </g>
              <text id="_50" data-name="50" transform="translate(56.767 76.129)" font-size="4" font-family="MyriadPro-Regular, Myriad Pro"><tspan x="0" y="0">50</tspan></text>
              <text id="_100" data-name="100" transform="translate(54.758 62.267)" font-size="4" font-family="MyriadPro-Regular, Myriad Pro"><tspan x="0" y="0">100</tspan></text>
              <text id="_150" data-name="150" transform="translate(54.758 49.698)" font-size="4" font-family="MyriadPro-Regular, Myriad Pro"><tspan x="0" y="0">150</tspan></text>
              <g id="Grupo_147952" data-name="Grupo 147952">
                <g id="Grupo_147951" data-name="Grupo 147951" clip-path="url(#clip-path)">
                  <path id="Trazado_193743" data-name="Trazado 193743" d="M0,7.067A9.756,9.756,0,0,1,6.854,1.632c2.983-.586,6-.171,9.01-.332C28.84,1.068,47.917.734,60.845.608l9-.041c-3,.148-5.994.248-8.992.372-14.909.5-30.09.879-44.985.877-2.968.1-6.023-.367-8.944.138A9.715,9.715,0,0,0,0,7.067" transform="translate(0 -0.185)" fill="#6d9ec6"/>
                  <path id="Trazado_193744" data-name="Trazado 193744" d="M8.728,16.783s.158-6.564-5.067-7.01,8.159-6.882,5.067,7.01" transform="translate(-0.793 -2.571)" fill="#fff"/>
                  <path id="Trazado_193745" data-name="Trazado 193745" d="M56.486,51.924H56.7c16.773,0,30.371-1.754,30.371-3.918s-13.6-3.918-30.37-3.918Z" transform="translate(-18.39 -14.353)" fill="#526fa5"/>
                </g>
              </g>
              <text id="_200" data-name="200" transform="translate(54.759 35.921)" font-size="4" font-family="MyriadPro-Regular, Myriad Pro"><tspan x="0" y="0">200</tspan></text>
              <g id="Grupo_147954" data-name="Grupo 147954">
                <g id="Grupo_147953" data-name="Grupo 147953" clip-path="url(#clip-path)">
                  <path id="Trazado_193746" data-name="Trazado 193746" d="M72.812,51.591H63.827V93.554h8.986" transform="translate(-20.779 -16.796)" fill="none" stroke="#4b4b4c" stroke-miterlimit="10" stroke-width="1"/>
                </g>
              </g>
            </g>
          </g>
        </g>
      </g>
      <g id="analitica" transform="translate(1216.578 926.917)">
        <path id="Trazado_193753" data-name="Trazado 193753" d="M125.41,60,112.37,73.848,99.445,69,90.213,78.58A1.142,1.142,0,0,0,91.829,80.2l8.193-8.54,13.04,4.962,13.963-15A1.838,1.838,0,0,1,125.41,60Z" transform="translate(-80.144 -53.508)" fill="#636363"/>
        <rect id="Rectángulo_40591" data-name="Rectángulo 40591" width="10.04" height="10.04" transform="translate(44.205 37.188) rotate(135)" fill="#344a5e"/>
        <path id="Trazado_193754" data-name="Trazado 193754" d="M35.919,35.919a21.053,21.053,0,1,1,0-29.773A21.1,21.1,0,0,1,35.919,35.919ZM9.492,9.492a16.239,16.239,0,1,0,22.965,0A16.229,16.229,0,0,0,9.492,9.492Z" transform="translate(0 0)" fill="#415a6b"/>
        <path id="Trazado_193755" data-name="Trazado 193755" d="M334.206,334.206h0a7.1,7.1,0,0,1-10.04,0l-9.232-9.232,10.04-10.04,9.232,9.232A7.1,7.1,0,0,1,334.206,334.206Z" transform="translate(-280.862 -280.862)" fill="#ddc192"/>
        <rect id="Rectángulo_40592" data-name="Rectángulo 40592" width="4.847" height="14.31" transform="translate(37.408 47.545) rotate(-135)" fill="#cbab76"/>
        <path id="Trazado_193756" data-name="Trazado 193756" d="M306.613,296.573l-10.04,10.04a2.366,2.366,0,1,1-3.347-3.347l10.04-10.04a2.366,2.366,0,1,1,3.347,3.347Z" transform="translate(-260.885 -260.885)" fill="#e8eae9"/>
        <circle id="Elipse_4057" data-name="Elipse 4057" cx="3.577" cy="3.577" r="3.577" transform="translate(42.381 3.606)" fill="#c8ccd3"/>
        <circle id="Elipse_4058" data-name="Elipse 4058" cx="2.077" cy="2.077" r="2.077" transform="translate(43.881 5.107)" fill="#a0a9b6"/>
        <circle id="Elipse_4059" data-name="Elipse 4059" cx="3.577" cy="3.577" r="3.577" transform="translate(29.11 18.147)" fill="#c2d3f3"/>
        <circle id="Elipse_4060" data-name="Elipse 4060" cx="2.077" cy="2.077" r="2.077" transform="translate(30.61 19.647)" fill="#9eb7e5"/>
        <circle id="Elipse_4061" data-name="Elipse 4061" cx="3.577" cy="3.577" r="3.577" transform="translate(16.07 13.3)" fill="#51cbd1"/>
        <circle id="Elipse_4062" data-name="Elipse 4062" cx="2.077" cy="2.077" r="2.077" transform="translate(17.57 14.8)" fill="#84e8ed"/>
      </g>
    </g>
  </g>
</svg>
