<svg id="logotipo" xmlns="http://www.w3.org/2000/svg" width="268" height="79.139" viewBox="0 0 268 79.139">
  <path id="Trazado_193921" data-name="Trazado 193921" d="M32.189,23.118a8.9,8.9,0,1,0,8.949,8.9A8.936,8.936,0,0,0,32.189,23.118Zm0,23.041A14.139,14.139,0,1,1,46.4,32.019,14.193,14.193,0,0,1,32.189,46.159Z" transform="translate(7.291 7.253)" fill="#0185ca" fill-rule="evenodd"/>
  <g id="Grupo_148014" data-name="Grupo 148014" transform="translate(0 17.426)">
    <path id="Trazado_193922" data-name="Trazado 193922" d="M13.156,56.632a35.414,35.414,0,0,1-2.8-41.05L6.274,12.4A40.813,40.813,0,0,0,9.545,60.372Z" transform="translate(0 -12.397)" fill="#0185ca" fill-rule="evenodd"/>
  </g>
  <path id="Trazado_193923" data-name="Trazado 193923" d="M6.741,10.633,10.7,14.56a36.719,36.719,0,0,1,3.94-3.926L10.682,6.706A42.545,42.545,0,0,0,6.741,10.633Z" transform="translate(2.734 2.72)" fill="#0185ca" fill-rule="evenodd"/>
  <path id="Trazado_193924" data-name="Trazado 193924" d="M34.343,0A41.216,41.216,0,0,0,12.359,6.289l3.2,4.051A35.745,35.745,0,0,1,34.343,5.061a35.367,35.367,0,0,1,23.912,9.077l4.639-2.74A40.679,40.679,0,0,0,34.343,0Z" transform="translate(5.012)" fill="#0185ca" fill-rule="evenodd"/>
  <path id="Trazado_193925" data-name="Trazado 193925" d="M52.042,50.257A21.85,21.85,0,0,1,14.287,35.646a21.666,21.666,0,0,1,21.8-21.483A21.984,21.984,0,0,1,48.362,17.9L53.2,14.95A27.3,27.3,0,0,0,36.082,8.941a26.931,26.931,0,0,0-27.094,26.7A26.933,26.933,0,0,0,36.082,62.353a27.206,27.206,0,0,0,20.283-9.025Z" transform="translate(3.645 3.626)" fill="#0185ca" fill-rule="evenodd"/>
  <g id="Grupo_148015" data-name="Grupo 148015" transform="translate(14.215 66.193)">
    <path id="Trazado_193926" data-name="Trazado 193926" d="M55.064,49.449a35.188,35.188,0,0,1-41.253-2.356l-3.7,3.553a40.539,40.539,0,0,0,48.195,2.742Z" transform="translate(-10.113 -47.093)" fill="#0185ca" fill-rule="evenodd"/>
  </g>
  <path id="Trazado_193927" data-name="Trazado 193927" d="M56.426,13.328l-1.433-2.151L39.323,20.723l1.548,2.268c.1.145.2.292.293.441a21.342,21.342,0,0,1,.694,22.125l4.372,3.094A26.492,26.492,0,0,0,46.752,22.4l6.537-3.984A34.028,34.028,0,0,1,46.3,60.446l3.334,4.142A39.366,39.366,0,0,0,63.011,35.077,39.119,39.119,0,0,0,56.426,13.328Z" transform="translate(15.948 4.533)" fill="#0185ca" fill-rule="evenodd"/>
  <path id="Trazado_193928" data-name="Trazado 193928" d="M108.919,40.224a7.87,7.87,0,1,1,7.916-7.871A7.9,7.9,0,0,1,108.919,40.224Zm0-21.224a13.353,13.353,0,1,0,13.427,13.353A13.4,13.4,0,0,0,108.919,19Z" transform="translate(38.732 7.706)" fill="#0185ca" fill-rule="evenodd"/>
  <path id="Trazado_193929" data-name="Trazado 193929" d="M72.817,21.4a3.271,3.271,0,0,1-3.158-3.437,3.17,3.17,0,1,1,6.317,0A3.271,3.271,0,0,1,72.817,21.4ZM70.225,47.519H75.43V24.36H70.225Z" transform="translate(28.252 5.893)" fill="#0185ca" fill-rule="evenodd"/>
  <path id="Trazado_193930" data-name="Trazado 193930" d="M91.2,45.706A13.532,13.532,0,0,1,77.523,32.351,13.53,13.53,0,0,1,91.2,19a13.755,13.755,0,0,1,9.645,3.889l.292.284L97.5,27.582l-.356-.392A8.051,8.051,0,0,0,91.2,24.582a7.772,7.772,0,1,0,0,15.539,8.035,8.035,0,0,0,6-2.67l.355-.4,3.66,4.395-.29.287A13.738,13.738,0,0,1,91.2,45.706Z" transform="translate(31.441 7.706)" fill="#0185ca" fill-rule="evenodd"/>
  <g id="Grupo_148016" data-name="Grupo 148016" transform="translate(244.924 26.722)">
    <path id="Trazado_193931" data-name="Trazado 193931" d="M187.573,45.659a13.324,13.324,0,1,1,9.4-22.767l.284.284-3.541,4.4-.349-.392a7.754,7.754,0,1,0,.053,10.24l.347-.4,3.563,4.385-.281.286A13.218,13.218,0,0,1,187.573,45.659Z" transform="translate(-174.252 -19.012)" fill="#0185ca" fill-rule="evenodd"/>
  </g>
  <path id="Trazado_193932" data-name="Trazado 193932" d="M131.394,19a13.538,13.538,0,0,0-13.423,13.621s.007,12.693.007,12.693v.392H123.9V32.2a7.5,7.5,0,1,1,15-.155V45.706h5.926V32.621A13.538,13.538,0,0,0,131.394,19Z" transform="translate(47.846 7.706)" fill="#0185ca" fill-rule="evenodd"/>
  <path id="Trazado_193933" data-name="Trazado 193933" d="M158.9,29.656a6.5,6.5,0,0,1,6.658-5.592c3.555,0,6.149,2.181,6.48,5.592ZM165.506,19a12.388,12.388,0,0,0-9.042,3.778,13.837,13.837,0,0,0-3.664,9.671c0,7.806,5.563,13.257,13.53,13.257,7.216,0,10.352-4.651,10.909-5.585l.171-.29-.273-.2-3.493-2.559-.322-.234-.226.322a7.972,7.972,0,0,1-6.668,3.294c-4.242,0-7.49-2.592-7.752-6.492h19.3l.038-.335a11.352,11.352,0,0,0,.052-1.32,13.9,13.9,0,0,0-3.314-9.63A12.172,12.172,0,0,0,165.506,19Z" transform="translate(61.971 7.706)" fill="#0185ca" fill-rule="evenodd"/>
  <path id="Trazado_193934" data-name="Trazado 193934" d="M154.431,42.007h0l-.274.024h-.008c-.132.009-.588.045-.925.045-2.4,0-3.535-.6-3.535-3.993v-13h4.969V20.745H149.7v-5.1h-5.877v5.1h-3.38V25.08h.387l2.994-.017v12.22a13.649,13.649,0,0,0,1.254,6.4c1.236,2.247,3.414,3.385,6.481,3.385a12.608,12.608,0,0,0,2.412-.185l.187-.038.275-.058Z" transform="translate(56.959 6.346)" fill="#0185ca" fill-rule="evenodd"/>
</svg>
