<svg xmlns="http://www.w3.org/2000/svg" xmlns:xlink="http://www.w3.org/1999/xlink" width="117" height="118" viewBox="0 0 117 118">
  <defs>
    <clipPath id="clip-path">
      <rect id="Rectángulo_40590" data-name="Rectángulo 40590" width="71.345" height="88.519" fill="none"/>
    </clipPath>
    <clipPath id="clip-path-3">
      <rect id="Rectángulo_40586" data-name="Rectángulo 40586" width="33.98" height="88.411" fill="#dadada"/>
    </clipPath>
  </defs>
  <g id="Grupo_148350" data-name="Grupo 148350" transform="translate(-673 -920)">
    <circle id="Elipse_4053" data-name="Elipse 4053" cx="58" cy="58" r="58" transform="translate(673 920)" fill="#fff"/>
    <g id="Grupo_147962" data-name="Grupo 147962" transform="translate(345)">
      <ellipse id="Elipse_4055" data-name="Elipse 4055" cx="58.5" cy="6.5" rx="58.5" ry="6.5" transform="translate(328 1025)" fill="#afafaf" opacity="0.4"/>
      <g id="Grupo_147956" data-name="Grupo 147956">
        <g id="Grupo_147946" data-name="Grupo 147946" transform="translate(350.827 947.481)">
          <g id="Grupo_147955" data-name="Grupo 147955" clip-path="url(#clip-path)">
            <g id="Grupo_147950" data-name="Grupo 147950">
              <g id="Grupo_147949" data-name="Grupo 147949" clip-path="url(#clip-path)">
                <path id="Trazado_193738" data-name="Trazado 193738" d="M0,6.883S7.393,7.9,7.647,18.991,9.3,75.452,9.3,75.452s1.912,14.148,27.275,13,29.7-7.01,30.334-12.363S69.844,6.118,69.844,6.118s1.691-3.767,1.484-4.9C71.218.629,69.844,0,69.844,0H7.138S1.02.892,0,6.883" fill="#e8e8e8"/>
                <g id="Grupo_147948" data-name="Grupo 147948" transform="translate(37.365)" opacity="0.63">
                  <g id="Grupo_147947" data-name="Grupo 147947">
                    <g id="Grupo_147946-2" data-name="Grupo 147946" clip-path="url(#clip-path-3)">
                      <path id="Trazado_193739" data-name="Trazado 193739" d="M84.95,76.089c.637-5.353,2.931-69.972,2.931-69.972s1.692-3.768,1.484-4.9C89.255.629,87.881,0,87.881,0H56.343V37.571L55.4,88.411c24.655-1.234,28.917-7.026,29.548-12.322" transform="translate(-55.402)" fill="#dadada"/>
                    </g>
                  </g>
                </g>
                <path id="Trazado_193740" data-name="Trazado 193740" d="M42.19,49.9H11.931c.5,17.388,1.257,41.8,1.257,41.8s1.911,14.147,27.275,13,29.7-7.01,30.334-12.363c.353-2.968,1.216-24.148,1.914-42.436Z" transform="translate(-3.884 -16.245)" fill="#9eb7e5"/>
                <path id="Trazado_193741" data-name="Trazado 193741" d="M56.232,49.9c.293,20.893.47,44.51-.009,54.729,24.164-1.292,28.368-7.036,28.994-12.293.353-2.968,1.215-24.148,1.914-42.436h-30.9Z" transform="translate(-18.304 -16.245)" fill="#6a8ccc"/>
                <path id="Trazado_193742" data-name="Trazado 193742" d="M72.507,48.007c0,2.164-13.6,3.918-30.371,3.918S11.765,50.17,11.765,48.007s13.6-3.918,30.371-3.918,30.371,1.754,30.371,3.918" transform="translate(-3.83 -14.354)" fill="#86a3d8"/>
                <line id="Línea_161" data-name="Línea 161" x2="8.412" transform="translate(43.047 49.133)" fill="none" stroke="#fff" stroke-miterlimit="10" stroke-width="1.036"/>
                <line id="Línea_162" data-name="Línea 162" x2="8.412" transform="translate(43.047 64.428)" fill="none" stroke="#fff" stroke-miterlimit="10" stroke-width="1.036"/>
              </g>
            </g>
            <text id="_50" data-name="50" transform="translate(56.767 76.129)" fill="#fff" font-size="4" font-family="ArialMT, Arial"><tspan x="0" y="0">50</tspan></text>
            <text id="_100" data-name="100" transform="translate(54.758 62.267)" fill="#fff" font-size="4" font-family="ArialMT, Arial"><tspan x="0" y="0">100</tspan></text>
            <text id="_150" data-name="150" transform="translate(54.758 49.698)" fill="#fff" font-size="4" font-family="ArialMT, Arial"><tspan x="0" y="0">150</tspan></text>
            <g id="Grupo_147952" data-name="Grupo 147952">
              <g id="Grupo_147951" data-name="Grupo 147951" clip-path="url(#clip-path)">
                <path id="Trazado_193743" data-name="Trazado 193743" d="M0,7.067A9.756,9.756,0,0,1,6.854,1.632c2.983-.586,6-.171,9.01-.332C28.84,1.068,47.917.734,60.845.608l9-.041c-3,.148-5.994.248-8.992.372-14.909.5-30.09.879-44.985.877-2.968.1-6.023-.367-8.944.138A9.715,9.715,0,0,0,0,7.067" transform="translate(0 -0.185)" fill="#6d9ec6"/>
                <path id="Trazado_193744" data-name="Trazado 193744" d="M8.728,16.783s.158-6.564-5.067-7.01,8.159-6.882,5.067,7.01" transform="translate(-0.793 -2.571)" fill="#fff"/>
                <path id="Trazado_193745" data-name="Trazado 193745" d="M56.486,51.924H56.7c16.773,0,30.371-1.754,30.371-3.918s-13.6-3.918-30.37-3.918Z" transform="translate(-18.39 -14.353)" fill="#526fa5"/>
              </g>
            </g>
            <text id="_200" data-name="200" transform="translate(54.759 35.921)" fill="#fff" font-size="4" font-family="ArialMT, Arial"><tspan x="0" y="0">200</tspan></text>
            <g id="Grupo_147954" data-name="Grupo 147954">
              <g id="Grupo_147953" data-name="Grupo 147953" clip-path="url(#clip-path)">
                <path id="Trazado_193746" data-name="Trazado 193746" d="M72.812,51.591H63.827V93.554h8.986" transform="translate(-20.779 -16.796)" fill="none" stroke="#fff" stroke-miterlimit="10" stroke-width="1"/>
              </g>
            </g>
          </g>
        </g>
      </g>
    </g>
    <g id="XMLID_1680_" transform="translate(734.714 928.622)">
      <path id="XMLID_2093_" d="M105,120.98a15.984,15.984,0,0,0,15.966,15.966l1.064-16.285-1.064-15.646A15.984,15.984,0,0,0,105,120.98Z" transform="translate(-93.824 -93.824)" fill="#f5deb9"/>
      <path id="XMLID_2143_" d="M255,105.014v31.931a15.966,15.966,0,1,0,0-31.931Z" transform="translate(-227.858 -93.824)" fill="#ddc192"/>
      <path id="XMLID_2025_" d="M147.012,135.95a12.8,12.8,0,0,0-11.076,11.076l1.178,1.6-1.178,1.6A12.8,12.8,0,0,0,147.012,161.3l1.6-3.094,1.064-10.91-1.064-8.249Z" transform="translate(-121.467 -121.467)" fill="#f4f1f1"/>
      <path id="XMLID_2066_" d="M267.673,147.026A12.8,12.8,0,0,0,256.6,135.95l-1.6,3.094V158.2l1.6,3.093a12.8,12.8,0,0,0,11.076-11.076l-1.547-1.6Z" transform="translate(-227.858 -121.467)" fill="#eae7ea"/>
      <path id="XMLID_2103_" d="M348.094,240.014H345v3.193h3.094a12.837,12.837,0,0,0,0-3.193Z" transform="translate(-308.279 -214.455)" fill="#dddadf"/>
      <path id="XMLID_2119_" d="M138.194,240.014H135.1a12.851,12.851,0,0,0,0,3.193h3.093Z" transform="translate(-120.632 -214.455)" fill="#eae7ea"/>
      <path id="XMLID_2019_" d="M240,135.114v3.094h1.6l1.064-1.6-1.064-1.6A12.833,12.833,0,0,0,240,135.114Z" transform="translate(-214.455 -120.631)" fill="#eae7ea"/>
      <path id="XMLID_2067_" d="M256.6,135.114a12.858,12.858,0,0,0-1.6-.1v3.193h1.6Z" transform="translate(-227.858 -120.631)" fill="#dddadf"/>
      <path id="XMLID_2068_" d="M240,348.109a12.86,12.86,0,0,0,1.6.1l1.064-1.6-1.064-1.6H240Z" transform="translate(-214.455 -308.28)" fill="#eae7ea"/>
      <path id="XMLID_2069_" d="M256.6,348.109v-3.094H255v3.193A12.873,12.873,0,0,0,256.6,348.109Z" transform="translate(-227.858 -308.28)" fill="#dddadf"/>
      <path id="XMLID_2078_" d="M240,195.014v7.241l1.6,1.064,1.064-4.153-1.064-4.153Z" transform="translate(-214.455 -174.245)" fill="#263442"/>
      <path id="XMLID_2070_" d="M260.675,203.265l-4.079-2.719v-5.532H255v8.305l3.9,2.6Z" transform="translate(-227.858 -174.245)" fill="#22222b"/>
      <path id="XMLID_2022_" d="M3.193,27.156A23.976,23.976,0,0,1,27.142,3.207V.014a27.142,27.142,0,0,0,0,54.283l1.6-1.6-1.6-1.6A23.976,23.976,0,0,1,3.193,27.156Z" transform="translate(0 0)" fill="#76e2f8"/>
      <path id="XMLID_2072_" d="M276.75,72.945l4.427.27.194-3.187-9.794-.6-.608,8.994,3.186.215.237-3.511c11.356,15.627.256,38-19.392,38v3.193a27.143,27.143,0,0,0,21.75-43.38Z" transform="translate(-227.858 -62.028)" fill="#4bb9ec"/>
    </g>
  </g>
</svg>
