<svg xmlns="http://www.w3.org/2000/svg" xmlns:xlink="http://www.w3.org/1999/xlink" width="287" height="172.884" viewBox="0 0 287 172.884">
  <defs>
    <clipPath id="clip-path">
      <rect id="Rectángulo_40632" data-name="Rectángulo 40632" width="287" height="172.884" transform="translate(-25)" fill="none"/>
    </clipPath>
    <clipPath id="clip-path-2">
      <rect id="Rectángulo_40631" data-name="Rectángulo 40631" width="283" height="179.884" transform="translate(-22)" fill="none"/>
    </clipPath>
    <clipPath id="clip-path-3">
      <rect id="Rectángulo_40597" data-name="Rectángulo 40597" width="16.364" height="13.749" fill="none"/>
    </clipPath>
    <clipPath id="clip-path-4">
      <rect id="Rectángulo_40598" data-name="Rectángulo 40598" width="14.572" height="31.525" fill="none"/>
    </clipPath>
    <clipPath id="clip-path-5">
      <rect id="Rectángulo_40603" data-name="Rectángulo 40603" width="54.753" height="48.481" fill="none"/>
    </clipPath>
    <clipPath id="clip-path-6">
      <rect id="Rectángulo_40604" data-name="Rectángulo 40604" width="61.158" height="3.02" fill="none"/>
    </clipPath>
    <clipPath id="clip-path-7">
      <rect id="Rectángulo_40606" data-name="Rectángulo 40606" width="54.753" height="2.583" fill="none"/>
    </clipPath>
    <clipPath id="clip-path-8">
      <rect id="Rectángulo_40607" data-name="Rectángulo 40607" width="7.593" height="35.397" fill="none"/>
    </clipPath>
    <clipPath id="clip-path-9">
      <rect id="Rectángulo_40609" data-name="Rectángulo 40609" width="28.557" height="2.6" fill="none"/>
    </clipPath>
    <clipPath id="clip-path-10">
      <rect id="Rectángulo_40610" data-name="Rectángulo 40610" width="39.142" height="21.132" fill="none"/>
    </clipPath>
    <clipPath id="clip-path-11">
      <rect id="Rectángulo_40611" data-name="Rectángulo 40611" width="43.721" height="2.159" fill="none"/>
    </clipPath>
    <clipPath id="clip-path-12">
      <rect id="Rectángulo_40613" data-name="Rectángulo 40613" width="39.142" height="1.846" fill="none"/>
    </clipPath>
    <clipPath id="clip-path-13">
      <rect id="Rectángulo_40614" data-name="Rectángulo 40614" width="5.428" height="14.577" fill="none"/>
    </clipPath>
  </defs>
  <g id="Grupo_148002" data-name="Grupo 148002" transform="translate(25 0)">
    <g id="Grupo_148001" data-name="Grupo 148001" transform="translate(0 0)" clip-path="url(#clip-path)">
      <g id="Grupo_148000" data-name="Grupo 148000">
        <g id="Grupo_147999" data-name="Grupo 147999" clip-path="url(#clip-path-2)">
          <path id="Trazado_193757" data-name="Trazado 193757" d="M35.312,168.586c-10.657-8.439-21.305-17.3-27.452-28.246S.821,115.82,9.274,105.909c4.6-5.4,11.758-9.581,14.174-15.822,4.422-11.422-8.91-22.127-11.71-33.873-2.07-8.687,2.253-18.159,10.831-23.729s21.043-7,31.23-3.586c6.234,2.089,11.552,5.8,18.028,7.352,13.763,3.289,27.917-4.059,37.931-12.3s19-18.157,32.452-22.186c18.08-5.415,39.426,2.257,50.4,14.971s13.117,29.177,10.765,44.52c-.8,5.239-2.089,10.472-1.834,15.747s2.264,10.744,7.059,14.367,12.788,4.789,18.1,1.662c5.781-3.4,6.645-10.31,12.021-14.117,5.252-3.718,13.657-3.341,19.615-.382s9.87,7.951,12.842,13.035c14.142,24.2,10.224,54.526-9.8,75.892Z" transform="translate(-21.895 -0.001)" fill="#9eb7e5"/>
          <path id="Trazado_193758" data-name="Trazado 193758" d="M223.714,160.405l13.843,3.683a22.155,22.155,0,0,1,14.748,12.874l15.656,37.493-19.192,9.01,1.91,35.6H180.667l1.184-9.616a162.6,162.6,0,0,0,1.217-19.243l.258-67.74,21.716-3.176Z" transform="translate(-113.018 -88.704)" fill="#fff"/>
          <path id="Trazado_193759" data-name="Trazado 193759" d="M261.181,161.811l7.66,7.919a1.329,1.329,0,0,1-.09,1.933l-3.321,2.85,5.761,9.01a1.329,1.329,0,0,1-.155,1.631l-13.578,14.332Z" transform="translate(-150.485 -90.11)" fill="#c7d2d7"/>
          <path id="Trazado_193760" data-name="Trazado 193760" d="M296.96,159.288l-7.625,9.134a1.772,1.772,0,0,0,.435,2.647l5.784,3.544-5.416,7.662a1.773,1.773,0,0,0,.508,2.527l21.263,13.28Z" transform="translate(-204.936 -88.705)" fill="#c7d2d7"/>
          <path id="Trazado_193761" data-name="Trazado 193761" d="M310,198.081l-14.949-38.794-5.822,8.539a1.772,1.772,0,0,0,.433,2.44l5.389,3.857-4.992,7.741a1.773,1.773,0,0,0,.464,2.407Z" transform="translate(-203.029 -88.704)" fill="#fff"/>
          <path id="Trazado_193762" data-name="Trazado 193762" d="M265.194,161.811l-3.723,37.675,11.787-15.036a1.773,1.773,0,0,0,.145-1.971l-4.793-8.419,2.715-2.671a1.772,1.772,0,0,0,.094-2.427Z" transform="translate(-154.498 -90.11)" fill="#fff"/>
          <path id="Trazado_193763" data-name="Trazado 193763" d="M286.159,246.834l-.681,28.856.681,30.353,1.527-30.428Z" transform="translate(-179.186 -137.458)" fill="#c7d2d7"/>
          <path id="Trazado_193764" data-name="Trazado 193764" d="M329.915,196.4l2.216,24.949,13.294-8.308L339,215.384a3.031,3.031,0,0,1-4.036-2.416,56.631,56.631,0,0,0-4.593-15.582Z" transform="translate(-256.616 -109.372)" fill="#c7d2d7"/>
          <path id="Trazado_193765" data-name="Trazado 193765" d="M297.951,245.615l18.66-11.662,14.252,3.8a11.64,11.64,0,0,1-3.951,4.511l-3.1,7.34a55.015,55.015,0,0,1-1.329,12.378L305.607,274.3a13.268,13.268,0,0,1-7.856,2.551q.088-2.534.1-5.07Z" transform="translate(-227.802 -130.285)" fill="#c7d2d7"/>
          <path id="Trazado_193766" data-name="Trazado 193766" d="M317.137,342.463a146.946,146.946,0,0,0,18.548-.125c-.145,1.96-.307,4-.456,5.982a1.318,1.318,0,0,1-.96,1.171c-3.187.9-6.447,1.977-9.626,2.861a1.324,1.324,0,0,1-.745-.008,36.425,36.425,0,0,1-6.911-3.011,1.33,1.33,0,0,1-.623-1.52,17.637,17.637,0,0,0,.773-5.351" transform="translate(-240.849 -190.642)" fill="#c7d2d7"/>
          <path id="Trazado_193767" data-name="Trazado 193767" d="M318.678,340.338a124.481,124.481,0,0,0,17.07-.125c-.154,2.266-.329,4.639-.483,6.9-3.307.983-6.716,2.229-10.023,3.212a30.38,30.38,0,0,1-7.428-3.321,23.233,23.233,0,0,0,.865-6.672" transform="translate(-241.577 -189.459)" fill="#fff"/>
          <path id="Trazado_193768" data-name="Trazado 193768" d="M243.414,342.463a97.571,97.571,0,0,1-15.11-.125c.118,1.96.25,4,.372,5.982a1.284,1.284,0,0,0,.782,1.171c2.6.9,5.252,1.977,7.841,2.861a.889.889,0,0,0,.608-.008,27.186,27.186,0,0,0,5.63-3.011,1.471,1.471,0,0,0,.507-1.52,21.379,21.379,0,0,1-.631-5.351" transform="translate(-110.25 -190.642)" fill="#c7d2d7"/>
          <path id="Trazado_193769" data-name="Trazado 193769" d="M243.037,340.338a75.789,75.789,0,0,1-13.314-.125c.12,2.266.256,4.639.377,6.9,2.579.983,5.239,2.229,7.818,3.212a21.571,21.571,0,0,0,5.794-3.321,29.41,29.41,0,0,1-.674-6.672" transform="translate(-110.506 -189.459)" fill="#fff"/>
          <path id="Trazado_193770" data-name="Trazado 193770" d="M230.051,252.978a40.284,40.284,0,0,0-11.4.288,7.784,7.784,0,0,0-4.812,2.816,19.527,19.527,0,0,0-2.475,4.061,5.346,5.346,0,0,0,.759,5.66c1.03,1.223,2.117,2.516,2.924,3.5a1.412,1.412,0,0,0,1.109.519h.044a1.472,1.472,0,0,0,1.2-2.293,23.78,23.78,0,0,1-1.862-3.439,27.4,27.4,0,0,0,4.447,4.675,5.7,5.7,0,0,0,4.164,1.281c2.317-.21,4.664-.406,6.992-.611a6.887,6.887,0,0,0,5.936-4.691q.138-.417.258-.841a8.61,8.61,0,0,0-7.29-10.923" transform="translate(-96.117 -140.727)" fill="#7dd3e9"/>
          <path id="Trazado_193771" data-name="Trazado 193771" d="M298.135,123.961V135.7l-7.755,3.84-8.881-6.278,2.847-15.666Z" transform="translate(-187.873 -65.49)" fill="#f0bf9c"/>
          <path id="Trazado_193772" data-name="Trazado 193772" d="M287.472,132.449a17.454,17.454,0,0,1-5.288-9.295,31.856,31.856,0,0,1-.685-4l.283-1.557,13.789,6.361v11.17a11.115,11.115,0,0,1-8.1-2.683" transform="translate(-185.309 -65.49)" fill="#472948"/>
          <path id="Trazado_193773" data-name="Trazado 193773" d="M309.484,159.232l-5.376,9.783L299,155.761l1.6-2.807Z" transform="translate(-206.976 -85.177)" fill="#c4ffff"/>
          <path id="Trazado_193774" data-name="Trazado 193774" d="M288.276,158.454l-7.755,3.84,7.146,8.2,1.043-10.551Z" transform="translate(-178.013 -88.241)" fill="#c4ffff"/>
          <path id="Trazado_193775" data-name="Trazado 193775" d="M288.25,167.121l7.146,8.2-2.68,27.125-9.842-25.54Z" transform="translate(-185.743 -93.067)" fill="#acefed"/>
          <path id="Trazado_193776" data-name="Trazado 193776" d="M293.136,167.121l3.785,4.342-1.274,3.856-3.074.3-2.114-3.622Z" transform="translate(-190.629 -93.067)" fill="#5fa5cc"/>
          <path id="Trazado_193777" data-name="Trazado 193777" d="M289.818,185.621,293.3,197.3l-1.527,15.448-6.294-16.332,1.266-10.5Z" transform="translate(-184.799 -103.369)" fill="#5fa5cc"/>
          <path id="Trazado_193778" data-name="Trazado 193778" d="M295.481,175.8l-1.274,3.856-3.074.3-.674-1.155,1.1-.106a3.2,3.2,0,0,0,2.788-2.377l.365-1.4Z" transform="translate(-189.188 -97.408)" fill="#418aaa"/>
          <path id="Trazado_193779" data-name="Trazado 193779" d="M266.026,58.155a22.372,22.372,0,0,0,7.347-19.722,22.372,22.372,0,0,0-12.616-16.846,18.289,18.289,0,0,0-9.87-1.648,13.664,13.664,0,0,0-8.744,4.648,32.147,32.147,0,0,1-.908-8.8,6.58,6.58,0,0,0-1.9,4.243,5.85,5.85,0,0,0,1.411,4.143,8,8,0,0,0-7.054-2.408c1.651.908,3.32,1.956,4.97,2.864a10.457,10.457,0,0,0-7.273.645,9.815,9.815,0,0,0-4.935,5.06,15.527,15.527,0,0,0-.958,6.33,38.075,38.075,0,0,0,3.116,14.427c1.09,2.519,3.86,4.278,6.187,5.734,1.913-2.931,5.077-5.462,7.9-7.532a71.825,71.825,0,0,1,15,4.988,35.989,35.989,0,0,1,4.88,2.921c.867.617,2.649,1.649,3.453.952" transform="translate(-138.503 -8.792)" fill="#6a3649"/>
          <path id="Trazado_193780" data-name="Trazado 193780" d="M242.753,75.666c3.522-1.56,7.306-8.292,7.176-13.29a44.793,44.793,0,0,0,22.588,13.54,56.792,56.792,0,0,1-4.195,13.1c-2.438,5.408-6.462,10.772-12.282,11.919-5.582,1.1-11.387-2.214-14.468-7a24.412,24.412,0,0,1-3.513-11.771,16.613,16.613,0,0,0,4.693-6.5" transform="translate(-143.005 -34.736)" fill="#f0bf9c"/>
          <path id="Trazado_193781" data-name="Trazado 193781" d="M277.919,86.742a6.39,6.39,0,0,0-5.079,2.563l10.19-.061a6.392,6.392,0,0,0-5.111-2.5" transform="translate(-168.931 -48.305)" fill="#6a3649"/>
          <path id="Trazado_193782" data-name="Trazado 193782" d="M282.958,101.558a1.727,1.727,0,1,1-1.835-1.614,1.727,1.727,0,0,1,1.835,1.614" transform="translate(-171.817 -55.655)" fill="#472948"/>
          <path id="Trazado_193783" data-name="Trazado 193783" d="M244.387,92.819a4.5,4.5,0,0,1,3.318,3.206l-7.731-1.469a4.851,4.851,0,0,1,4.413-1.737" transform="translate(-119.042 -51.651)" fill="#6a3649"/>
          <path id="Trazado_193784" data-name="Trazado 193784" d="M248.817,106.98a1.378,1.378,0,1,0,1.736-1.322,1.569,1.569,0,0,0-1.736,1.322" transform="translate(-126.688 -58.819)" fill="#472948"/>
          <path id="Trazado_193785" data-name="Trazado 193785" d="M307.729,102.789l-6.438-4.845v1.9l5.44,4.506Z" transform="translate(-206.237 -54.544)" fill="#fff"/>
          <path id="Trazado_193786" data-name="Trazado 193786" d="M314.517,115.51l-2.032-4.157-1.568-.274,2.456,5.779Z" transform="translate(-217.29 -61.858)" fill="#fff"/>
          <path id="Trazado_193787" data-name="Trazado 193787" d="M266.413,112.736c-1.581-.853-3.05-2-4.8-2.4-2.057-.466-4.183.168-6.288.3a13.439,13.439,0,0,1-9.809-3.515,12.416,12.416,0,0,1,1.6-1.4A11.425,11.425,0,0,0,256.2,109c1.8-.177,3.592-.787,5.376-.5,1.711.279,3.169,1.346,4.689,2.182s3.358,1.463,4.961.8c-.3.729-.586,1.463-.9,2.212a6.826,6.826,0,0,1-3.915-.959" transform="translate(-145.018 -58.879)" fill="#fff"/>
          <path id="Trazado_193788" data-name="Trazado 193788" d="M251.954,108.878a13.436,13.436,0,0,0,9.809,3.515c2.105-.132,4.232-.766,6.289-.3,1.752.4,3.221,1.544,4.8,2.4a6.828,6.828,0,0,0,3.915.958,27.6,27.6,0,0,1-5.373,8.529c-3.767,4.136-17.429,8.124-23.854-8.345a24.714,24.714,0,0,1,4.412-6.754" transform="translate(-151.459 -60.632)" fill="#7dd3e9"/>
          <path id="Trazado_193789" data-name="Trazado 193789" d="M252.935,118.783a32.724,32.724,0,0,0,4.886,1.148,26.076,26.076,0,0,0,5.57.248,22.672,22.672,0,0,1,2.995-.085,7.328,7.328,0,0,1,1.542.267,7.671,7.671,0,0,1,1.389.58c.848.446,1.57.931,2.316,1.262a4.383,4.383,0,0,0,2.27.445,3.958,3.958,0,0,1-2.462.156,18.969,18.969,0,0,1-2.563-.874,6.854,6.854,0,0,0-2.548-.485c-.9-.007-1.849.109-2.85.173a17.4,17.4,0,0,1-5.891-.63,15.338,15.338,0,0,1-4.655-2.2" transform="translate(-150.983 -66.148)" fill="#5fa5cc"/>
          <path id="Trazado_193790" data-name="Trazado 193790" d="M259.415,127.552c1.91.284,4.342.713,6.792,1.021s4.911.515,6.831.721a22.584,22.584,0,0,1-13.623-1.742" transform="translate(-152.989 -71.032)" fill="#5fa5cc"/>
          <path id="Trazado_193791" data-name="Trazado 193791" d="M265.3,133.669c1.232.222,2.8.526,4.388.72s3.182.292,4.43.379a13.255,13.255,0,0,1-8.819-1.1" transform="translate(-156.673 -74.438)" fill="#5fa5cc"/>
          <path id="Trazado_193792" data-name="Trazado 193792" d="M317.221,93a3.8,3.8,0,0,0-3.037-.88,3.175,3.175,0,0,0-2.224,3.05,5.847,5.847,0,0,0,1.473,3.7,6.235,6.235,0,0,0,2.307,1.875,3.5,3.5,0,0,0,2.909.016c3.362-1.675.578-6.247-1.428-7.758" transform="translate(-223.453 -51.265)" fill="#f0bf9c"/>
          <path id="Trazado_193793" data-name="Trazado 193793" d="M317.5,98.877a2.579,2.579,0,0,1,4.491,2.3,1.225,1.225,0,0,1-.744.914,1.315,1.315,0,0,1-1.225-.491,1.9,1.9,0,0,1-.6-1.218.992.992,0,0,1,.755-1.021,3.059,3.059,0,0,0-2.678-.481" transform="translate(-227.764 -54.543)" fill="#eba58e"/>
          <path id="Trazado_193794" data-name="Trazado 193794" d="M253.625,41.845a22.6,22.6,0,0,0-14.056-13.553c-4.129-1.336-10.441-1.012-14.083,1.348a13.663,13.663,0,0,1,8.743-4.648,18.29,18.29,0,0,1,9.871,1.648,21.932,21.932,0,0,1,8.07,33.61,22.631,22.631,0,0,0,1.455-18.4" transform="translate(-121.844 -13.844)" fill="#8e5a61"/>
          <path id="Trazado_193795" data-name="Trazado 193795" d="M180.495,254.362c16.838-10.635,5.846-43.711-14.463-47.566l-3.784-10.4c31.873,4.455,55.137,62.725,18.247,75.464Z" transform="translate(-36.249 -109.372)" fill="#99a3b0"/>
          <rect id="Rectángulo_40596" data-name="Rectángulo 40596" width="6.599" height="17.503" transform="translate(144.246 144.99)" fill="#acbbbf"/>
          <path id="Trazado_193796" data-name="Trazado 193796" d="M165.6,254.362c16.838-10.635,5.846-43.711-14.463-47.566l-3.784-10.4c31.873,4.455,55.137,62.725,18.247,75.464Z" transform="translate(-14.76 -109.372)" fill="#c7d2d7"/>
          <g id="Grupo_147968" data-name="Grupo 147968" transform="translate(125.999 87.029)" opacity="0.3">
            <g id="Grupo_147967" data-name="Grupo 147967">
              <g id="Grupo_147966" data-name="Grupo 147966" clip-path="url(#clip-path-3)">
                <path id="Trazado_193797" data-name="Trazado 193797" d="M209.057,196.4a30.71,30.71,0,0,1,7.326,2l-.727-2a30.174,30.174,0,0,1,5.856,1.44l3.909,11.035-4.41,1.274a22.712,22.712,0,0,0-8.171-3.354Z" transform="translate(-209.057 -196.401)" fill="#21255c"/>
              </g>
            </g>
          </g>
          <path id="Trazado_193798" data-name="Trazado 193798" d="M255.977,154.081c-.428-1.177,1.153-2.834,3.533-3.7s4.655-.613,5.084.564l.331.909-.411.15a7.261,7.261,0,0,1-7.794,2.837l-.412.15Z" transform="translate(-143.321 -83.458)" fill="#797c99"/>
          <path id="Trazado_193799" data-name="Trazado 193799" d="M255.819,156.133c.428,1.177,2.7,1.43,5.084.564s3.961-2.522,3.532-3.7-2.7-1.43-5.084-.564-3.961,2.523-3.533,3.7" transform="translate(-142.832 -84.601)" fill="#495375"/>
          <path id="Trazado_193800" data-name="Trazado 193800" d="M249.281,154.56c1.8-.655,3.521-.464,3.845.426l5.065,13.917-6.516,2.372-5.065-13.917c-.324-.89.872-2.143,2.671-2.8" transform="translate(-132.445 -85.855)" fill="#99a3b0"/>
          <path id="Trazado_193801" data-name="Trazado 193801" d="M228.778,184.568c-1.046-2.874,2.815-6.919,8.624-9.033s11.367-1.5,12.413,1.376l.808,2.221-1,.366c-1.043,2.376-4.225,4.917-8.428,6.447s-8.274,1.629-10.6.479l-1,.366Z" transform="translate(-116.924 -97.052)" fill="#797c99"/>
          <path id="Trazado_193802" data-name="Trazado 193802" d="M228.392,189.58c1.046,2.875,6.6,3.491,12.414,1.376s9.671-6.159,8.624-9.033-6.6-3.491-12.414-1.376-9.671,6.159-8.624,9.033" transform="translate(-115.73 -99.843)" fill="#495375"/>
          <path id="Trazado_193803" data-name="Trazado 193803" d="M212.43,185.736c4.393-1.6,8.6-1.133,9.387,1.041l12.367,33.978-15.909,5.79-12.367-33.977c-.791-2.174,2.129-5.232,6.522-6.832" transform="translate(-90.369 -102.904)" fill="#99a3b0"/>
          <g id="Grupo_147971" data-name="Grupo 147971" transform="translate(119.493 87.148)" opacity="0.3">
            <g id="Grupo_147970" data-name="Grupo 147970">
              <g id="Grupo_147969" data-name="Grupo 147969" clip-path="url(#clip-path-4)">
                <path id="Trazado_193804" data-name="Trazado 193804" d="M240.753,228.048h0a2.435,2.435,0,0,0,1.455-3.12l-9.7-26.654a2.434,2.434,0,1,0-4.575,1.665l9.7,26.654a2.434,2.434,0,0,0,3.12,1.455" transform="translate(-227.784 -196.671)" fill="#fff"/>
              </g>
            </g>
          </g>
          <path id="Trazado_193805" data-name="Trazado 193805" d="M192.248,263.75c-1.346-3.7,3.62-8.9,11.092-11.618s14.618-1.927,15.964,1.77l1.04,2.856-1.292.47c-1.34,3.057-5.433,6.324-10.839,8.292s-10.641,2.1-13.633.615l-1.292.47Z" transform="translate(-70.435 -139.508)" fill="#797c99"/>
          <path id="Trazado_193806" data-name="Trazado 193806" d="M191.752,270.2c1.345,3.7,8.493,4.489,15.964,1.77s12.437-7.921,11.092-11.618-8.493-4.49-15.964-1.77S190.406,266.5,191.752,270.2" transform="translate(-68.899 -143.097)" fill="#495375"/>
          <path id="Trazado_193807" data-name="Trazado 193807" d="M197.51,275.72c-.724-1.99,1.949-4.79,5.971-6.254s7.87-1.037,8.594.953l3.389,9.31-.7.253c-.721,1.645-2.925,3.4-5.835,4.463s-5.728,1.128-7.338.331l-.7.253Z" transform="translate(-67.932 -149.577)" fill="#797c99"/>
          <path id="Trazado_193808" data-name="Trazado 193808" d="M197.244,296.73c.724,1.99,4.572,2.417,8.594.953s6.7-4.264,5.971-6.254-4.572-2.417-8.594-.953-6.7,4.264-5.971,6.254" transform="translate(-64.277 -161.277)" fill="#495375"/>
          <path id="Trazado_193809" data-name="Trazado 193809" d="M171.417,309.477h37.449L221.96,297.2H184.511Z" transform="translate(-62.918 -165.508)" fill="#797c99"/>
          <path id="Trazado_193810" data-name="Trazado 193810" d="M209.455,294.116l-.589-2.457H171.417l.589,2.457Z" transform="translate(-50.413 -162.42)" fill="#21255c"/>
          <path id="Trazado_193811" data-name="Trazado 193811" d="M255.929,303.932l.589,2.457,13.094-12.273-.589-2.457Z" transform="translate(-148.019 -162.42)" fill="#495375"/>
          <rect id="Rectángulo_40599" data-name="Rectángulo 40599" width="62.923" height="4.653" transform="translate(117.5 165.705)" fill="#21255c"/>
          <rect id="Rectángulo_40600" data-name="Rectángulo 40600" width="28.691" height="4.653" transform="translate(88.809 165.705)" fill="#495375"/>
          <path id="Trazado_193812" data-name="Trazado 193812" d="M150.636,333.306h0a1.308,1.308,0,0,1,.253,0h3.291l.388,4.5,9.361,13.505H149.417V334.629a1.315,1.315,0,0,1,1.219-1.322" transform="translate(4.862 -185.609)" fill="#797c99"/>
          <path id="Trazado_193813" data-name="Trazado 193813" d="M141.417,351.31V334.624a1.33,1.33,0,0,1,2.422-.757l12.09,17.443Z" transform="translate(16.406 -185.605)" fill="#99a3b0"/>
          <path id="Trazado_193814" data-name="Trazado 193814" d="M162.6,349.174c0,1.3.779,2.345,1.739,2.345s1.739-1.05,1.739-2.345-.779-2.345-1.739-2.345-1.739,1.05-1.739,2.345" transform="translate(-3.129 -193.143)" fill="#495375"/>
          <path id="Trazado_193815" data-name="Trazado 193815" d="M341.642,179.724l2.216,24.949,8.53-5.317,7.422,21.824-15.237,11.369a12.926,12.926,0,0,1-20.655-10.36V187.15a21.616,21.616,0,0,1,12.125-19.421l2.609-1.275Z" transform="translate(-268.343 -92.695)" fill="#fff"/>
          <path id="Trazado_193816" data-name="Trazado 193816" d="M372.443,250.871l-12.526,7.809c2.777-8.584,6.73-9.376,12.4-9.257Z" transform="translate(-296.929 -138.893)" fill="#c7d2d7"/>
          <path id="Trazado_193817" data-name="Trazado 193817" d="M331.138,262.528S321.5,252,323.715,240.7c6.314,2.326,8.419,13.072,7.422,21.824" transform="translate(-239.671 -134.044)" fill="#99a3b0"/>
          <path id="Trazado_193818" data-name="Trazado 193818" d="M346.6,286.44l.277.322-.087.074a1.29,1.29,0,0,1-.492,1.313,1.3,1.3,0,0,1-1.272.2l-.1.085-.361-.42a1.294,1.294,0,0,1,2.033-1.579" transform="translate(-264.46 -159.278)" fill="#99a3b0"/>
          <path id="Trazado_193819" data-name="Trazado 193819" d="M344.357,287.036a1.171,1.171,0,1,0,1.732.131,1.231,1.231,0,0,0-1.732-.131" transform="translate(-263.672 -159.683)" fill="#c7d2d7"/>
          <path id="Trazado_193820" data-name="Trazado 193820" d="M354.822,292.082l.277.322-.087.074a1.29,1.29,0,0,1-.492,1.313,1.3,1.3,0,0,1-1.272.2l-.1.085-.361-.42a1.294,1.294,0,0,1,2.033-1.579" transform="translate(-276.325 -162.42)" fill="#99a3b0"/>
          <path id="Trazado_193821" data-name="Trazado 193821" d="M352.581,292.678a1.171,1.171,0,1,0,1.731.131,1.231,1.231,0,0,0-1.731-.131" transform="translate(-275.539 -162.825)" fill="#c7d2d7"/>
          <path id="Trazado_193822" data-name="Trazado 193822" d="M318.748,236.945c-1.222,6.231,1.16,12.226,3.544,16.35l6.315-8.175-5.095-11.166Z" transform="translate(-234.703 -130.285)" fill="#f0bf9c"/>
          <path id="Trazado_193823" data-name="Trazado 193823" d="M321.1,245a15.171,15.171,0,0,1-1.317-10.3l1.189-.746,5.095,11.166-6.315,8.175c-.452-.781-.9-1.63-1.33-2.535.783-.923,1.562-1.858,2.348-2.769A2.674,2.674,0,0,0,321.1,245" transform="translate(-232.158 -130.286)" fill="#eba58e"/>
          <path id="Trazado_193824" data-name="Trazado 193824" d="M248.065,212.266l7.829-5.76,12.627-8.919a6.416,6.416,0,0,1,6.044-.747,32.874,32.874,0,0,1,9.01,5.452,3.406,3.406,0,0,1,1.482,2.279,1.412,1.412,0,0,1-.43,1.134c-.69.627-1.584.256-2.322-.112l-9.886-4.924c2.968,1.905,6.089,4.06,9.057,5.965a5.417,5.417,0,0,1,1.739,1.507,1.635,1.635,0,0,1-1.676,2.649,5.4,5.4,0,0,1-1.672-.686l-9.152-5.02c2.467,1.875,4.918,3.79,7.385,5.665a5,5,0,0,1,1.39,1.379,1.51,1.51,0,0,1-1.527,2.4,5,5,0,0,1-1.588-.554l-7.255-3.5c1.729,1.553,3.6,2.855,5.329,4.408.568.51,1.193,1.221.882,1.943a1.164,1.164,0,0,1-.807.64,2.765,2.765,0,0,1-1.749-.309,17.89,17.89,0,0,1-4.513-2.823,17.84,17.84,0,0,1-9.9,3.18l-4.874,9.039c-7.976-3.213-5.428-14.291-5.428-14.291" transform="translate(-159.811 -109.372)" fill="#7dd3e9"/>
          <path id="Trazado_193825" data-name="Trazado 193825" d="M323.254,243.84a8.422,8.422,0,0,1-2.223-1.937,9.971,9.971,0,0,1-2.229-6.3,8.432,8.432,0,0,1,.51-2.9,15.136,15.136,0,0,0,3.942,11.142" transform="translate(-229.521 -129.586)" fill="#5fa5cc"/>
          <path id="Trazado_193826" data-name="Trazado 193826" d="M321.058,244.552a8.243,8.243,0,0,1-2.586-7.905,15.772,15.772,0,0,0,2.586,7.905" transform="translate(-227.091 -131.785)" fill="#5fa5cc"/>
          <path id="Trazado_193827" data-name="Trazado 193827" d="M311.967,229.795a6.048,6.048,0,0,1-1.663-1.91,6.7,6.7,0,0,1-.415-5.7,6.055,6.055,0,0,1,1.369-2.131,8.934,8.934,0,0,0,.709,9.745" transform="translate(-214.085 -122.542)" fill="#5fa5cc"/>
          <path id="Trazado_193828" data-name="Trazado 193828" d="M71.351,337.625a3.1,3.1,0,0,0,3.1-3.1V309.678H29.615v24.848a3.1,3.1,0,0,0,3.1,3.1Z" transform="translate(147.427 -172.454)" fill="#7dd3e9"/>
          <g id="Grupo_147974" data-name="Grupo 147974" transform="translate(172.083 121.648)" opacity="0.7">
            <g id="Grupo_147973" data-name="Grupo 147973">
              <g id="Grupo_147972" data-name="Grupo 147972" clip-path="url(#clip-path-5)">
                <path id="Trazado_193829" data-name="Trazado 193829" d="M26.482,323.01H65.119a8.058,8.058,0,0,0,8.058-8.058V274.529H18.424v40.422a8.058,8.058,0,0,0,8.058,8.058" transform="translate(-18.424 -274.529)" fill="#fff"/>
              </g>
            </g>
          </g>
          <g id="Grupo_147977" data-name="Grupo 147977" transform="translate(168.88 118.628)" opacity="0.9">
            <g id="Grupo_147976" data-name="Grupo 147976">
              <g id="Grupo_147975" data-name="Grupo 147975" clip-path="url(#clip-path-6)">
                <path id="Trazado_193830" data-name="Trazado 193830" d="M12.707,270.733H70.845a1.51,1.51,0,1,0,0-3.02H12.707a1.51,1.51,0,1,0,0,3.02" transform="translate(-11.197 -267.713)" fill="#fff"/>
              </g>
            </g>
          </g>
          <g id="Grupo_147980" data-name="Grupo 147980" transform="translate(172.083 121.648)" opacity="0.3">
            <g id="Grupo_147979" data-name="Grupo 147979">
              <g id="Grupo_147978" data-name="Grupo 147978" clip-path="url(#clip-path-7)">
                <rect id="Rectángulo_40605" data-name="Rectángulo 40605" width="54.753" height="2.583" transform="translate(0)" fill="#21255c"/>
              </g>
            </g>
          </g>
          <path id="Trazado_193831" data-name="Trazado 193831" d="M33.167,291.139h7.516a.7.7,0,1,0,0-1.395H33.167a.7.7,0,1,0,0,1.395" transform="translate(179.231 -161.354)" fill="#99a3b0"/>
          <path id="Trazado_193832" data-name="Trazado 193832" d="M33.168,284.872H45.391a.7.7,0,0,0,0-1.395H33.168a.7.7,0,1,0,0,1.395" transform="translate(174.524 -157.864)" fill="#99a3b0"/>
          <path id="Trazado_193833" data-name="Trazado 193833" d="M33.167,297.9h7.516a.7.7,0,1,0,0-1.395H33.167a.7.7,0,1,0,0,1.395" transform="translate(179.231 -165.119)" fill="#99a3b0"/>
          <path id="Trazado_193834" data-name="Trazado 193834" d="M33.167,304.661h7.516a.7.7,0,1,0,0-1.395H33.167a.7.7,0,1,0,0,1.395" transform="translate(179.231 -168.884)" fill="#99a3b0"/>
          <path id="Trazado_193835" data-name="Trazado 193835" d="M33.168,311.422H45.391a.7.7,0,0,0,0-1.394H33.168a.7.7,0,1,0,0,1.394" transform="translate(174.524 -172.649)" fill="#99a3b0"/>
          <path id="Trazado_193836" data-name="Trazado 193836" d="M33.167,318.183h7.516a.7.7,0,1,0,0-1.394H33.167a.7.7,0,1,0,0,1.394" transform="translate(179.231 -176.414)" fill="#99a3b0"/>
          <path id="Trazado_193837" data-name="Trazado 193837" d="M33.167,324.944h7.516a.7.7,0,1,0,0-1.394H33.167a.7.7,0,1,0,0,1.394" transform="translate(179.231 -180.179)" fill="#99a3b0"/>
          <path id="Trazado_193838" data-name="Trazado 193838" d="M33.167,331.705h7.516a.7.7,0,1,0,0-1.395H33.167a.7.7,0,1,0,0,1.395" transform="translate(179.231 -183.945)" fill="#99a3b0"/>
          <path id="Trazado_193839" data-name="Trazado 193839" d="M33.168,338.466H45.391a.7.7,0,0,0,0-1.395H33.168a.7.7,0,1,0,0,1.395" transform="translate(174.524 -187.71)" fill="#99a3b0"/>
          <path id="Trazado_193840" data-name="Trazado 193840" d="M33.167,345.228h7.516a.7.7,0,1,0,0-1.395H33.167a.7.7,0,1,0,0,1.395" transform="translate(179.231 -191.475)" fill="#99a3b0"/>
          <path id="Trazado_193841" data-name="Trazado 193841" d="M33.167,351.988h7.516a.7.7,0,1,0,0-1.394H33.167a.7.7,0,1,0,0,1.394" transform="translate(179.231 -195.24)" fill="#99a3b0"/>
          <path id="Trazado_193842" data-name="Trazado 193842" d="M33.167,358.75h7.516a.7.7,0,1,0,0-1.395H33.167a.7.7,0,1,0,0,1.395" transform="translate(179.231 -199.005)" fill="#99a3b0"/>
          <path id="Trazado_193843" data-name="Trazado 193843" d="M33.168,365.51H45.391a.7.7,0,0,0,0-1.395H33.168a.7.7,0,1,0,0,1.395" transform="translate(174.524 -202.77)" fill="#99a3b0"/>
          <g id="Grupo_147983" data-name="Grupo 147983" transform="translate(179.469 125.613)" opacity="0.9">
            <g id="Grupo_147982" data-name="Grupo 147982">
              <g id="Grupo_147981" data-name="Grupo 147981" clip-path="url(#clip-path-8)">
                <path id="Trazado_193844" data-name="Trazado 193844" d="M111.979,292.143h0a3.8,3.8,0,0,0,3.8-3.8v-1.072a3.8,3.8,0,0,0-7.593,0v1.072a3.8,3.8,0,0,0,3.8,3.8" transform="translate(-108.182 -283.477)" fill="#fff"/>
                <path id="Trazado_193845" data-name="Trazado 193845" d="M111.979,334.535h0a3.8,3.8,0,0,0,3.8-3.8V315.4a3.8,3.8,0,0,0-7.593,0v15.341a3.8,3.8,0,0,0,3.8,3.8" transform="translate(-108.182 -299.139)" fill="#fff"/>
              </g>
            </g>
          </g>
          <path id="Trazado_193846" data-name="Trazado 193846" d="M475.075,239.46a9.041,9.041,0,0,1,.3-6.218,8.3,8.3,0,0,1,4.322-4.463,8.393,8.393,0,0,1,.69,3.4,7.714,7.714,0,0,1-.679,3.177A7.428,7.428,0,0,1,475.075,239.46Z" transform="translate(-455.713 -127.403)" fill="#91b66a"/>
          <path id="Trazado_193847" data-name="Trazado 193847" d="M469.086,256.052a8.96,8.96,0,0,1,.836-6.171,8.237,8.237,0,0,1,4.693-4.071,8.9,8.9,0,0,1,.39,3.449,8.316,8.316,0,0,1-.946,3.1,7.505,7.505,0,0,1-4.974,3.689" transform="translate(-447.806 -136.887)" fill="#638674"/>
          <path id="Trazado_193848" data-name="Trazado 193848" d="M464.527,273.05a8.653,8.653,0,0,1,.147-3.2,8.976,8.976,0,0,1,3.33-5.166,7.777,7.777,0,0,1,2.9-1.36,8.876,8.876,0,0,1,.236,1.762,9.09,9.09,0,0,1-.142,1.706,8.514,8.514,0,0,1-.445,1.586,8.192,8.192,0,0,1-.765,1.425,7.48,7.48,0,0,1-2.241,2.177,7.657,7.657,0,0,1-3.017,1.07" transform="translate(-441.941 -146.64)" fill="#91b66a"/>
          <path id="Trazado_193849" data-name="Trazado 193849" d="M461.427,290.325a8.122,8.122,0,0,1,.079-1.63,9.011,9.011,0,0,1,.341-1.547,9.458,9.458,0,0,1,1.457-2.76,8.282,8.282,0,0,1,5.325-3.21,9.109,9.109,0,0,1-.2,3.465,8.293,8.293,0,0,1-1.472,2.9,7.47,7.47,0,0,1-5.528,2.784" transform="translate(-438.172 -156.583)" fill="#638674"/>
          <path id="Trazado_193850" data-name="Trazado 193850" d="M496.828,246.5a7.19,7.19,0,0,0-4.09-4.5,7.757,7.757,0,0,0-6.1.1h0a7.558,7.558,0,0,0,1.649,2.4,8.583,8.583,0,0,0,2.425,1.628A8.742,8.742,0,0,0,496.828,246.5Z" transform="translate(-477.466 -134.447)" fill="#638674"/>
          <path id="Trazado_193851" data-name="Trazado 193851" d="M492.075,261.777a7.241,7.241,0,0,0-3.683-4.838,7.81,7.81,0,0,0-6.084-.429,7.045,7.045,0,0,0,1.434,2.54,7.828,7.828,0,0,0,2.281,1.831A8.638,8.638,0,0,0,492.075,261.777Z" transform="translate(-470.794 -142.613)" fill="#91b66a"/>
          <path id="Trazado_193852" data-name="Trazado 193852" d="M488.655,277.346a7.461,7.461,0,0,0-1.1-2.986,7.31,7.31,0,0,0-5.009-3.226,8.3,8.3,0,0,0-3.184.129,7.187,7.187,0,0,0,.49,1.4,6.84,6.84,0,0,0,.723,1.256,7.58,7.58,0,0,0,.971,1.094,8.009,8.009,0,0,0,1.142.925,8.809,8.809,0,0,0,2.785,1.227,8.422,8.422,0,0,0,3.181.183" transform="translate(-466.069 -150.936)" fill="#638674"/>
          <path id="Trazado_193853" data-name="Trazado 193853" d="M486.571,293.087a8.054,8.054,0,0,0-.247-1.608,7.216,7.216,0,0,0-.592-1.461,6.977,6.977,0,0,0-1.963-2.326,7.77,7.77,0,0,0-5.916-1.463,6.875,6.875,0,0,0,.982,2.747,7.843,7.843,0,0,0,1.924,2.193,8.687,8.687,0,0,0,5.812,1.918" transform="translate(-463.317 -159.345)" fill="#91b66a"/>
          <path id="Trazado_193854" data-name="Trazado 193854" d="M493.751,229.833a8.651,8.651,0,0,1-2.609-1.8,8.462,8.462,0,0,1-2.466-5.386,8.345,8.345,0,0,1,.352-3.154,7.712,7.712,0,0,1,2.805,1.567,7.727,7.727,0,0,1,2.572,5.618A7.489,7.489,0,0,1,493.751,229.833Z" transform="translate(-475.936 -122.234)" fill="#638674"/>
          <path id="Trazado_193855" data-name="Trazado 193855" d="M482.564,277.762a4.567,4.567,0,0,0,.276-1.5c.053-.485.128-1.079.175-1.77s.076-1.482.121-2.353a73.6,73.6,0,0,0-.857-13.613,74.754,74.754,0,0,0-3.27-13.243c-.271-.83-.581-1.558-.825-2.207s-.469-1.2-.681-1.643a4.6,4.6,0,0,0-.727-1.34,4.58,4.58,0,0,0,.368,1.475c.157.46.318,1.032.521,1.691s.455,1.4.682,2.237a100.578,100.578,0,0,1,2.96,13.179,98.4,98.4,0,0,1,1.134,13.459c.01.866.018,1.65.026,2.339s0,1.282-.007,1.768a4.621,4.621,0,0,0,.106,1.519" transform="translate(-459.43 -133.705)" fill="#456179"/>
          <path id="Trazado_193856" data-name="Trazado 193856" d="M430.4,275.467a4.441,4.441,0,0,1,3.669-2.4,9.063,9.063,0,0,1,5.411,1.256,4.6,4.6,0,0,1-3.587,2.069A10.243,10.243,0,0,1,430.4,275.467Z" transform="translate(-395.194 -152.037)" fill="#91b66a"/>
          <path id="Trazado_193857" data-name="Trazado 193857" d="M435,285.409a4.458,4.458,0,0,1,3.493-2.649,9.1,9.1,0,0,1,5.485.88,3.551,3.551,0,0,1-1.328,1.488,5.816,5.816,0,0,1-2.111.824,10.161,10.161,0,0,1-5.539-.543" transform="translate(-401.737 -157.397)" fill="#638674"/>
          <path id="Trazado_193858" data-name="Trazado 193858" d="M438.968,295.594a4.456,4.456,0,0,1,3.308-2.88,9.077,9.077,0,0,1,5.535.5,3.74,3.74,0,0,1-1.224,1.575,6.2,6.2,0,0,1-2.049.967A10.236,10.236,0,0,1,438.968,295.594Z" transform="translate(-407.325 -162.878)" fill="#91b66a"/>
          <path id="Trazado_193859" data-name="Trazado 193859" d="M442.317,305.977a3.8,3.8,0,0,1,1.086-1.9,5.162,5.162,0,0,1,2.014-1.2,9.069,9.069,0,0,1,5.551.123,3.507,3.507,0,0,1-1.114,1.655,5.823,5.823,0,0,1-1.974,1.106A10.2,10.2,0,0,1,442.317,305.977Z" transform="translate(-411.966 -168.456)" fill="#638674"/>
          <path id="Trazado_193860" data-name="Trazado 193860" d="M454.721,267.827a5.224,5.224,0,0,0-.25-4.479,9.457,9.457,0,0,0-3.891-4.052,5.02,5.02,0,0,0,.021,4.737,8.453,8.453,0,0,0,4.12,3.795" transform="translate(-419.518 -144.397)" fill="#638674"/>
          <path id="Trazado_193861" data-name="Trazado 193861" d="M459.787,278.55a5.2,5.2,0,0,0-.56-4.453,9.411,9.411,0,0,0-4.161-3.775,4.725,4.725,0,0,0-.419,2.365,5.769,5.769,0,0,0,.764,2.356,8.512,8.512,0,0,0,4.375,3.506" transform="translate(-426.522 -150.538)" fill="#91b66a"/>
          <path id="Trazado_193862" data-name="Trazado 193862" d="M464.082,289.6a5.2,5.2,0,0,0-.858-4.4,9.44,9.44,0,0,0-4.407-3.481,4.515,4.515,0,0,0-.257,2.388,5.474,5.474,0,0,0,.925,2.3A8.454,8.454,0,0,0,464.082,289.6Z" transform="translate(-432.439 -156.882)" fill="#638674"/>
          <path id="Trazado_193863" data-name="Trazado 193863" d="M467.6,300.912a4.537,4.537,0,0,0-.065-2.2,6.479,6.479,0,0,0-1.1-2.13A9.443,9.443,0,0,0,461.8,293.4a4.783,4.783,0,0,0-.094,2.4,5.766,5.766,0,0,0,1.083,2.232A8.486,8.486,0,0,0,467.6,300.912Z" transform="translate(-437.252 -163.392)" fill="#91b66a"/>
          <path id="Trazado_193864" data-name="Trazado 193864" d="M438.562,263.765a5.342,5.342,0,0,1-.612-2.389,4.038,4.038,0,0,1,2.121-3.606,5.423,5.423,0,0,1,2.381-.629C443.731,260.547,442.15,263.221,438.562,263.765Z" transform="translate(-401.955 -143.197)" fill="#638674"/>
          <path id="Trazado_193865" data-name="Trazado 193865" d="M446.818,294.924c.289.041,1.081-5.726,3.3-12.505,2.166-6.8,4.861-11.955,4.62-12.081a12.9,12.9,0,0,0-2,3.26,57.741,57.741,0,0,0-3.5,8.536,57.086,57.086,0,0,0-2.14,8.975c-.169,1.169-.279,2.118-.311,2.779s-.033,1.027.03,1.036" transform="translate(-417.725 -150.546)" fill="#456179"/>
          <rect id="Rectángulo_40608" data-name="Rectángulo 40608" width="32.2" height="6.136" transform="translate(10.628 137.833)" fill="#a64f5a"/>
          <path id="Trazado_193866" data-name="Trazado 193866" d="M444.031,351.328h16.08l6.238-26.428H437.792Z" transform="translate(-425.343 -180.932)" fill="#8c404c"/>
          <g id="Grupo_147986" data-name="Grupo 147986" transform="translate(12.45 143.969)" opacity="0.3">
            <g id="Grupo_147985" data-name="Grupo 147985">
              <g id="Grupo_147984" data-name="Grupo 147984" clip-path="url(#clip-path-9)">
                <path id="Trazado_193867" data-name="Trazado 193867" d="M437.792,324.9h28.557l-.614,2.6H438.406Z" transform="translate(-437.793 -324.901)" fill="#21255c"/>
              </g>
            </g>
          </g>
          <path id="Trazado_193868" data-name="Trazado 193868" d="M421.889,361.39a3.106,3.106,0,0,0,3.1-3.1V347.736H391.166v10.552a3.106,3.106,0,0,0,3.1,3.1Z" transform="translate(-363.324 -193.648)" fill="#7dd3e9"/>
          <g id="Grupo_147989" data-name="Grupo 147989" transform="translate(25.184 149.268)" opacity="0.7">
            <g id="Grupo_147988" data-name="Grupo 147988">
              <g id="Grupo_147987" data-name="Grupo 147987" clip-path="url(#clip-path-10)">
                <path id="Trazado_193869" data-name="Trazado 193869" d="M390.928,357.991h27.621a5.76,5.76,0,0,0,5.761-5.761V336.859H385.167v15.372a5.76,5.76,0,0,0,5.761,5.761" transform="translate(-385.167 -336.859)" fill="#fff"/>
              </g>
            </g>
          </g>
          <g id="Grupo_147992" data-name="Grupo 147992" transform="translate(22.895 147.109)" opacity="0.9">
            <g id="Grupo_147991" data-name="Grupo 147991">
              <g id="Grupo_147990" data-name="Grupo 147990" clip-path="url(#clip-path-11)">
                <path id="Trazado_193870" data-name="Trazado 193870" d="M381.079,334.145h41.562a1.08,1.08,0,0,0,0-2.159H381.079a1.08,1.08,0,0,0,0,2.159" transform="translate(-380 -331.986)" fill="#fff"/>
              </g>
            </g>
          </g>
          <g id="Grupo_147995" data-name="Grupo 147995" transform="translate(25.184 149.268)" opacity="0.3">
            <g id="Grupo_147994" data-name="Grupo 147994">
              <g id="Grupo_147993" data-name="Grupo 147993" clip-path="url(#clip-path-12)">
                <rect id="Rectángulo_40612" data-name="Rectángulo 40612" width="39.142" height="1.846" transform="translate(0 0)" fill="#21255c"/>
              </g>
            </g>
          </g>
          <g id="Grupo_147998" data-name="Grupo 147998" transform="translate(31.184 152.809)" opacity="0.9">
            <g id="Grupo_147997" data-name="Grupo 147997">
              <g id="Grupo_147996" data-name="Grupo 147996" clip-path="url(#clip-path-13)">
                <path id="Trazado_193871" data-name="Trazado 193871" d="M449.492,348.42h1.859a1.784,1.784,0,0,0,0-3.569h-1.859a1.784,1.784,0,1,0,0,3.569" transform="translate(-447.708 -344.851)" fill="#fff"/>
                <path id="Trazado_193872" data-name="Trazado 193872" d="M449.492,365.878h1.859a1.784,1.784,0,0,0,1.784-1.784v-5.876a1.784,1.784,0,0,0-1.784-1.784h-1.859a1.784,1.784,0,0,0-1.784,1.784v5.876a1.784,1.784,0,0,0,1.784,1.784" transform="translate(-447.708 -351.301)" fill="#fff"/>
              </g>
            </g>
          </g>
          <path id="Trazado_193873" data-name="Trazado 193873" d="M37.4,86.518A40.514,40.514,0,1,0,77.915,46,40.514,40.514,0,0,0,37.4,86.518" transform="translate(99.998 -25.619)" fill="#e7f9fa"/>
          <rect id="Rectángulo_40615" data-name="Rectángulo 40615" width="0.939" height="10.694" transform="translate(181.204 71.752) rotate(-135)" fill="#cc6164"/>
          <rect id="Rectángulo_40616" data-name="Rectángulo 40616" width="0.939" height="15.614" transform="translate(177.218 71.245) rotate(-135)" fill="#cc6164"/>
          <rect id="Rectángulo_40617" data-name="Rectángulo 40617" width="0.939" height="17.491" transform="translate(174.307 69.662) rotate(-135)" fill="#cc6164"/>
          <rect id="Rectángulo_40618" data-name="Rectángulo 40618" width="0.939" height="17.889" transform="translate(171.92 67.556) rotate(-135)" fill="#cc6164"/>
          <rect id="Rectángulo_40619" data-name="Rectángulo 40619" width="0.939" height="17.491" transform="matrix(-0.707, -0.707, 0.707, -0.707, 169.813, 65.168)" fill="#cc6164"/>
          <rect id="Rectángulo_40620" data-name="Rectángulo 40620" width="0.939" height="15.613" transform="matrix(-0.707, -0.707, 0.707, -0.707, 168.231, 62.257)" fill="#cc6164"/>
          <rect id="Rectángulo_40621" data-name="Rectángulo 40621" width="0.939" height="10.694" transform="matrix(-0.707, -0.707, 0.707, -0.707, 167.723, 58.271)" fill="#cc6164"/>
          <rect id="Rectángulo_40622" data-name="Rectángulo 40622" width="0.939" height="10.694" transform="matrix(-0.707, -0.707, 0.707, -0.707, 189.672, 80.22)" fill="#cc6164"/>
          <rect id="Rectángulo_40623" data-name="Rectángulo 40623" width="0.939" height="15.613" transform="matrix(-0.707, -0.707, 0.707, -0.707, 190.18, 84.206)" fill="#cc6164"/>
          <rect id="Rectángulo_40624" data-name="Rectángulo 40624" width="0.939" height="17.491" transform="matrix(-0.707, -0.707, 0.707, -0.707, 191.763, 87.117)" fill="#cc6164"/>
          <rect id="Rectángulo_40625" data-name="Rectángulo 40625" width="0.939" height="10.694" transform="matrix(-0.707, -0.707, 0.707, -0.707, 159.255, 49.803)" fill="#cc6164"/>
          <rect id="Rectángulo_40626" data-name="Rectángulo 40626" width="0.939" height="15.613" transform="matrix(-0.707, -0.707, 0.707, -0.707, 155.269, 49.296)" fill="#cc6164"/>
          <rect id="Rectángulo_40627" data-name="Rectángulo 40627" width="0.939" height="17.491" transform="matrix(-0.707, -0.707, 0.707, -0.707, 152.358, 47.713)" fill="#cc6164"/>
          <path id="Trazado_193874" data-name="Trazado 193874" d="M117.8,130.207a16.186,16.186,0,0,0-19.065-19.065c.068-.331.144-.663.232-.993a20.254,20.254,0,0,0,.522-2.645,19.665,19.665,0,0,1,21.949,21.949,20.329,20.329,0,0,0-2.645.522c-.331.089-.662.164-.993.232" transform="translate(69.642 -59.776)" fill="#7dd3e9"/>
          <path id="Trazado_193875" data-name="Trazado 193875" d="M173.947,103.855c-.068.331-.144.663-.232.993a20.251,20.251,0,0,0-.522,2.645,19.42,19.42,0,0,1-16.34-5.609l2.451-2.451a16,16,0,0,0,14.643,4.422" transform="translate(-8.45 -55.373)" fill="#7dd3e9"/>
          <path id="Trazado_193876" data-name="Trazado 193876" d="M94.633,165.453A16,16,0,0,0,99.055,180.1L96.6,182.548a19.419,19.419,0,0,1-5.609-16.34,20.4,20.4,0,0,0,2.645-.522c.331-.089.662-.164.993-.232" transform="translate(95.696 -92.138)" fill="#7dd3e9"/>
          <path id="Trazado_193877" data-name="Trazado 193877" d="M70.293,87.174a20.252,20.252,0,0,1-.522,2.645c-.089.331-.164.662-.232.993A16.186,16.186,0,0,0,88.6,109.877c.331-.068.663-.144.993-.232a20.27,20.27,0,0,1,2.645-.522,19.421,19.421,0,0,1,16.34,5.609l-2.451,2.451a16.006,16.006,0,0,0-14.643-4.422c-.332.068-.663.144-.993.232a20.208,20.208,0,0,1-2.645.522A19.665,19.665,0,0,1,65.9,91.567a20.253,20.253,0,0,1,.522-2.645c.089-.331.164-.662.232-.993a16,16,0,0,0-4.422-14.643l2.451-2.451a19.42,19.42,0,0,1,5.609,16.34" transform="translate(98.841 -39.446)" fill="#5fa5cc"/>
          <path id="Trazado_193878" data-name="Trazado 193878" d="M67.9,137.994a2.727,2.727,0,1,0,2.727-2.726,2.727,2.727,0,0,0-2.727,2.726" transform="translate(131.56 -75.328)" fill="#7dd3e9"/>
          <path id="Trazado_193879" data-name="Trazado 193879" d="M76.792,120.462a1.679,1.679,0,1,0,1.679-1.679,1.679,1.679,0,0,0-1.679,1.679" transform="translate(120.823 -66.148)" fill="#5fa5cc"/>
          <path id="Trazado_193880" data-name="Trazado 193880" d="M74.053,97.807a1.363,1.363,0,1,0,1.363-1.363,1.364,1.364,0,0,0-1.363,1.363" transform="translate(125.406 -53.708)" fill="#5fa5cc"/>
          <path id="Trazado_193881" data-name="Trazado 193881" d="M94.51,94.211a1.241,1.241,0,1,0,1.241-1.241,1.241,1.241,0,0,0-1.241,1.241" transform="translate(96.129 -51.773)" fill="#7dd3e9"/>
          <path id="Trazado_193882" data-name="Trazado 193882" d="M111,83.284a2.5,2.5,0,1,0,2.5-2.5,2.5,2.5,0,0,0-2.5,2.5" transform="translate(69.82 -44.989)" fill="#7dd3e9"/>
          <path id="Trazado_193883" data-name="Trazado 193883" d="M176.14,139.1a2.235,2.235,0,1,0,2.235-2.235,2.235,2.235,0,0,0-2.235,2.235" transform="translate(-23.661 -76.218)" fill="#7dd3e9"/>
          <path id="Trazado_193884" data-name="Trazado 193884" d="M187.916,168.527a1.407,1.407,0,1,0,1.406-1.406,1.406,1.406,0,0,0-1.406,1.406" transform="translate(-38.998 -93.067)" fill="#5fa5cc"/>
          <path id="Trazado_193885" data-name="Trazado 193885" d="M162.248,167.229a1.776,1.776,0,1,0,1.776-1.776,1.776,1.776,0,0,0-1.776,1.776" transform="translate(-2.695 -92.138)" fill="#5fa5cc"/>
          <path id="Trazado_193886" data-name="Trazado 193886" d="M210.666,151.481a4.526,4.526,0,1,0,4.526-4.526,4.526,4.526,0,0,0-4.526,4.526" transform="translate(-78.068 -81.837)" fill="#7dd3e9"/>
          <path id="Trazado_193887" data-name="Trazado 193887" d="M199.916,125.811a2.033,2.033,0,1,0,2.033-2.033,2.033,2.033,0,0,0-2.033,2.033" transform="translate(-57.568 -68.93)" fill="#7dd3e9"/>
          <path id="Trazado_193888" data-name="Trazado 193888" d="M138.972,188.876a1.422,1.422,0,1,0,1.422-1.422,1.422,1.422,0,0,0-1.422,1.422" transform="translate(31.603 -104.39)" fill="#7dd3e9"/>
          <path id="Trazado_193889" data-name="Trazado 193889" d="M37.619,80.954a.663.663,0,0,0,.47-.195L51.875,66.973a.665.665,0,0,0-.94-.94L37.149,79.82a.665.665,0,0,0,.47,1.135" transform="translate(166.555 -36.664)" fill="#7dd3e9"/>
          <path id="Trazado_193890" data-name="Trazado 193890" d="M93.2,42.525a.665.665,0,0,0,.618-.42L101,23.978a.665.665,0,1,0-1.236-.489L92.583,41.616a.665.665,0,0,0,.618.91" transform="translate(92.95 -12.846)" fill="#7dd3e9"/>
          <rect id="Rectángulo_40628" data-name="Rectángulo 40628" width="13.368" height="1.182" transform="translate(173.517 3.192)" fill="#fff"/>
          <rect id="Rectángulo_40629" data-name="Rectángulo 40629" width="13.368" height="1.182" transform="translate(173.517 5.445)" fill="#fff"/>
          <rect id="Rectángulo_40630" data-name="Rectángulo 40630" width="7.755" height="1.182" transform="translate(179.13 7.697)" fill="#fff"/>
          <path id="Trazado_193891" data-name="Trazado 193891" d="M32,181.662a4.838,4.838,0,1,0,4.838-4.838A4.838,4.838,0,0,0,32,181.662" transform="translate(179.145 -98.47)" fill="#5fa5cc"/>
          <path id="Trazado_193892" data-name="Trazado 193892" d="M112.334,249.221a3.655,3.655,0,1,0,3.655-3.655,3.655,3.655,0,0,0-3.655,3.655" transform="translate(65.579 -136.752)" fill="#5fa5cc"/>
          <path id="Trazado_193893" data-name="Trazado 193893" d="M142.182,243.622a1.6,1.6,0,1,0,1.6-1.6,1.6,1.6,0,0,0-1.6,1.6" transform="translate(26.609 -134.776)" fill="#7dd3e9"/>
          <path id="Trazado_193894" data-name="Trazado 193894" d="M22.943,51.828a4.357,4.357,0,1,0,6.162,0,4.357,4.357,0,0,0-6.162,0" transform="translate(195.017 -28.152)" fill="#fff"/>
          <path id="Trazado_193895" data-name="Trazado 193895" d="M80.888,8.344A4.357,4.357,0,1,0,86.543,5.9a4.357,4.357,0,0,0-5.656,2.447" transform="translate(109.996 -3.113)" fill="#fff"/>
        </g>
      </g>
    </g>
  </g>
</svg>
